<?xml version="1.0"?>
<svg xmlns="http://www.w3.org/2000/svg" width="512" height="512" viewBox="0 0 128 128"><g><path d="M47.97,62.311A16.03,16.03,0,1,0,64,46.28,16.049,16.049,0,0,0,47.97,62.311Zm28.56,0A12.53,12.53,0,1,1,64,49.78,12.544,12.544,0,0,1,76.53,62.311Z"/><path d="M58.629,60.974a1.75,1.75,0,0,0-2.258,2.673l4.512,3.814a1.751,1.751,0,0,0,2.3-.035L71.67,59.8a1.75,1.75,0,0,0-2.34-2.6L61.977,63.8Z"/><path d="M98.092,43.059a1.75,1.75,0,0,0-1.6-1.549c-17.889-1.46-31.017-17.038-31.148-17.2A1.751,1.751,0,0,0,64,23.682h0a1.752,1.752,0,0,0-1.347.633c-.13.158-13.217,15.732-31.147,17.195a1.75,1.75,0,0,0-1.6,1.549c-.052.461-4.716,46.186,33.454,61.139a1.756,1.756,0,0,0,1.276,0C102.808,89.245,98.144,43.52,98.092,43.059ZM64,100.684C32.643,87.925,32.87,52.353,33.284,44.847,48.676,42.977,60.184,32.114,64,28.055c3.816,4.059,15.324,14.922,30.716,16.792C95.13,52.353,95.357,87.925,64,100.684Z"/><path d="M89.958,47.56c-10.782-2.468-19.432-8.708-24.79-13.509a1.749,1.749,0,0,0-2.336,0c-5.358,4.8-14.008,11.041-24.79,13.509a1.748,1.748,0,0,0-1.359,1.725A70.287,70.287,0,0,0,39,66.5c3.864,14.286,12.028,24.4,24.265,30.049a1.754,1.754,0,0,0,1.468,0C76.971,90.9,85.135,80.789,89,66.5a70.3,70.3,0,0,0,2.319-17.218A1.75,1.75,0,0,0,89.958,47.56ZM85.62,65.589C82.118,78.538,74.846,87.766,64,93.026c-10.846-5.26-18.118-14.488-21.62-27.437a66.248,66.248,0,0,1-2.168-14.957C50.324,48,58.53,42.375,64,37.682,69.47,42.375,77.677,48,87.788,50.632A66.2,66.2,0,0,1,85.62,65.589Z"/></g></svg>
